<svg xmlns="http://www.w3.org/2000/svg"  viewBox="0 0 50 50" width="384px" height="384px"><g data-name="Lineal Color"><rect width="40" height="40" x="5" y="5" fill="#eceff8" rx="2"/><path d="M43,4H7A3.00328,3.00328,0,0,0,4,7V43a3.00328,3.00328,0,0,0,3,3H43a3.00328,3.00328,0,0,0,3-3V7A3.00328,3.00328,0,0,0,43,4Zm1,39a1.00094,1.00094,0,0,1-1,1H7a1.00094,1.00094,0,0,1-1-1V7A1.00094,1.00094,0,0,1,7,6H43a1.00094,1.00094,0,0,1,1,1Z"/><path d="M41,24H26V9a1,1,0,0,0-2,0V24H9a1,1,0,0,0,0,2H24V41a1,1,0,0,0,2,0V26H41a1,1,0,0,0,0-2Z"/><path fill="#00bfbd" d="M35,22a7,7,0,1,1,7-7A7.00814,7.00814,0,0,1,35,22Zm0-12a5,5,0,1,0,5,5A5.00593,5.00593,0,0,0,35,10Z"/><path fill="#00bfbd" d="M15,42a7,7,0,1,1,7-7A7.00814,7.00814,0,0,1,15,42Zm0-12a5,5,0,1,0,5,5A5.00593,5.00593,0,0,0,15,30Z"/><path fill="#ed6c47" d="M36.4141,35l4.2929-4.293a.99985.99985,0,0,0-1.414-1.414L35,33.5859,30.707,29.293a.99985.99985,0,0,0-1.414,1.414L33.5859,35,29.293,39.293a.99985.99985,0,0,0,1.414,1.414L35,36.4141l4.293,4.2929a.99985.99985,0,0,0,1.414-1.414Z"/><path fill="#ed6c47" d="M16.4141,15l4.2929-4.293a.99985.99985,0,0,0-1.414-1.414L15,13.5859,10.707,9.293a.99985.99985,0,0,0-1.414,1.414L13.5859,15,9.293,19.293a.99985.99985,0,0,0,1.414,1.414L15,16.4141l4.293,4.2929a.99985.99985,0,0,0,1.414-1.414Z"/></g></svg>